<svg id="prefix__Capa_1" data-name="Capa 1" xmlns="http://www.w3.org/2000/svg" viewBox="0 0 1080 1080"><defs><style>.prefix__cls-1{fill:#fd3362;stroke-width:0}</style></defs><path class="prefix__cls-1" d="M0 123.14v582.95h1080V123.14H0zM818.25 636.7l-388.1-41.12-240.26-24L60.43 396.51l117.35-129.39 129.46-50.29 289.01-47.08 108.73 228.01 314.6 261.69-201.33-22.76zM60.73 824.14c8.06-4.82 17.23-7.24 27.52-7.24 9.64 0 18.38 1.9 26.21 5.69 7.83 3.8 15.06 10.52 21.7 20.16l26.09-8.78c-7.12-13.6-16.6-24.27-28.47-32.02s-27.04-11.62-45.54-11.62c-11.86 0-22.77 2.06-32.73 6.17-9.96 4.11-18.62 9.88-25.97 17.32-7.35 7.43-13.05 16.25-17.08 26.45-4.03 10.2-6.05 21.31-6.05 33.33 0 15.97 3.36 30.25 10.08 42.82 6.72 12.57 16.25 22.46 28.58 29.65 12.34 7.2 26.72 10.79 43.17 10.79 18.5 0 33.68-3.87 45.54-11.62 11.86-7.75 21.35-18.42 28.47-32.02l-26.09-8.78c-6.64 9.65-13.88 16.37-21.7 20.16-7.83 3.8-16.57 5.69-26.21 5.69-10.28 0-19.45-2.41-27.52-7.23s-14.47-11.51-19.22-20.05c-4.74-8.54-7.11-18.34-7.11-29.41s2.37-20.87 7.11-29.41c4.75-8.54 11.15-15.22 19.22-20.04zM185.26 792.71h27.52v161.54h-27.52zM358.18 904.54l-84.92-111.83h-24.19v161.54h27.51V842.38l84.92 111.87h24.2V792.71h-27.52v111.83zM421.76 954.25h99.86v-26.09h-72.35v-41.99h58.59v-26.09h-58.59V818.8h72.35v-26.09h-99.86v161.54zM640.7 893.17c8.54-4.51 15.22-10.79 20.05-18.86 4.82-8.06 7.23-17.32 7.23-27.75s-2.41-19.69-7.23-27.75c-4.83-8.06-11.51-14.43-20.05-19.09-8.54-4.66-18.42-7-29.65-7h-59.54v161.54h27.52v-54.32h30.72l29.77 54.32h30.13l-32.53-59.36c1.22-.53 2.42-1.1 3.59-1.72zm-61.67-74.37h28.47c9.8 0 17.59 2.34 23.36 7 5.77 4.67 8.66 11.59 8.66 20.76 0 8.54-2.89 15.22-8.66 20.05-5.77 4.82-13.56 7.23-23.36 7.23h-28.47v-55.03zM844.22 869.81h-78.99v25.38h52.48c-1.21 4.32-3 8.36-5.39 12.1-4.67 7.28-10.95 13.01-18.86 17.2-7.91 4.19-16.76 6.28-26.57 6.28s-19.21-2.45-27.28-7.35c-8.07-4.9-14.47-11.62-19.22-20.16-4.74-8.54-7.11-18.27-7.11-29.18s2.37-21.35 7.11-29.89c4.75-8.54 11.15-15.22 19.22-20.04 8.06-4.82 17.23-7.24 27.52-7.24 9.49 0 18.15 1.82 25.97 5.46 7.83 3.64 15.06 10.2 21.71 19.69l26.09-8.78c-7.12-13.29-16.6-23.76-28.47-31.43-11.86-7.67-26.96-11.5-45.31-11.5-11.86 0-22.77 2.06-32.73 6.17-9.96 4.11-18.62 9.93-25.97 17.43-7.35 7.51-13.05 16.37-17.08 26.57-4.03 10.2-6.05 21.39-6.05 33.56 0 15.82 3.4 29.97 10.2 42.46 6.8 12.49 16.33 22.34 28.58 29.53 12.25 7.2 26.61 10.79 43.05 10.79 11.07 0 21.35-1.86 30.84-5.57 9.49-3.72 17.83-8.93 25.02-15.66 7.2-6.72 12.81-14.55 16.84-23.48 4.03-8.93 6.05-18.62 6.05-29.06 0-2.21-.16-4.51-.47-6.88-.32-2.37-.71-4.51-1.19-6.4zM868.42 792.71h27.52v161.54h-27.52zM975.63 792.71l-57.4 161.54h27.75l12.38-35.11h68.27l12.09 35.11h27.99l-56.69-161.54h-34.4zm-8.22 100.82l25.51-72.31 24.91 72.31h-50.41z"/></svg>